<?xml version="1.0" encoding="UTF-8"?>
<!DOCTYPE svg PUBLIC "-//W3C//DTD SVG 1.1//EN" "http://www.w3.org/Graphics/SVG/1.1/DTD/svg11.dtd">
<!-- Creator: CorelDRAW 2019 (64 Bit) -->
<svg xmlns="http://www.w3.org/2000/svg" xml:space="preserve" width="63.5mm" height="19.5792mm" version="1.1" style="shape-rendering:geometricPrecision; text-rendering:geometricPrecision; image-rendering:optimizeQuality; fill-rule:evenodd; clip-rule:evenodd"
viewBox="0 0 2909.42 897.07"
 xmlns:xlink="http://www.w3.org/1999/xlink"
 xmlns:xodm="http://www.corel.com/coreldraw/odm/2003">
 <defs>
  <style type="text/css">
   <![CDATA[
    .fil0 {fill:#0BC2CA}
    .fil1 {fill:#FFD666}
    .fil2 {fill:white}
   ]]>
  </style>
 </defs>
 <g id="Camada_x0020_1">
  <metadata id="CorelCorpID_0Corel-Layer"/>
  <g id="_1745113389680">
   <path class="fil0" d="M1278.79 276.23c-28.13,0 -61.51,5.97 -97.98,48.25l0 -118.33c0,-29.9 -24.26,-54.21 -54.09,-54.21 -29.82,0 -54.09,24.32 -54.09,54.21l0 385.89c0,29.89 24.27,54.21 54.09,54.21 29.83,0 54.09,-24.32 54.09,-54.21l0 -149.77c0,-43.05 20.4,-66.83 57.56,-66.83 36.39,0 55.56,23.08 55.56,66.83l0 149.77c0,29.89 24.26,54.21 54.09,54.21 29.82,0 54.08,-24.32 54.08,-54.21l0 -181.21c-0.07,-84.26 -46.12,-134.59 -123.31,-134.59zm310.61 2.63c-44.04,0 -78.97,5.73 -113.2,18.59 -17.77,6.66 -29.66,23.85 -29.66,42.75 0,25.25 20.01,44.99 45.57,44.99 5.26,0 9.66,-0.77 15.69,-2.79 20.79,-6.51 42.73,-9.6 67.22,-9.6 58.1,0 70.47,32.14 70.63,59.32 -20.17,-6.58 -45.59,-12.63 -81.06,-12.63 -92.4,0 -145.42,42.36 -145.42,116.32l0 1.32c0,66.83 50.08,111.75 124.56,111.75 41.96,0 75.57,-12.78 102.37,-38.95 4.56,19.13 22.88,36.4 51,36.4 29.59,0 52.77,-22.92 52.77,-52.2l0 -159.76c0,-50.26 -13.13,-88.98 -39.16,-115 -26.89,-26.87 -67.7,-40.5 -121.31,-40.5zm-15.69 292.34c-30.67,0 -49.68,-14.56 -49.68,-38.02l0 -1.32c0,-27.95 23.33,-43.91 64.05,-43.91 20.85,0 41.64,4.11 58.87,11.54l0 14.79c0,33.46 -30.13,56.92 -73.24,56.92zm321.12 -245.8c27.97,-33.07 62.43,-49.18 105.08,-49.18 81.37,0 163.65,63.73 163.65,185.63l0 1.31c0,56.14 -17.22,103.69 -49.76,137.61 -29.75,31.06 -70.15,48.09 -113.89,48.09 -42.1,0 -75.56,-14.41 -104.53,-45.07l0 92.93c0,29.89 -24.27,54.21 -54.09,54.21 -29.82,0 -54.09,-24.32 -54.09,-54.21l0 -363.67c0,-29.89 24.27,-54.21 54.09,-54.21 27.28,0 49.84,20.29 53.55,46.54zm160.64 136.45c0,-52.58 -34.84,-92.31 -81.05,-92.31 -46.52,0 -80.36,38.8 -80.36,92.31l0 1.31c0,53.51 33.78,92.31 80.36,92.31 46.97,0 81.05,-38.8 81.05,-92.31l0 -1.31zm345.77 -185.63c-42.66,0 -77.11,16.11 -105.09,49.18 -3.71,-26.25 -26.27,-46.54 -53.55,-46.54 -29.82,0 -54.08,24.32 -54.08,54.21l0 363.67c0,29.89 24.26,54.21 54.08,54.21 29.84,0 54.09,-24.32 54.09,-54.21l0 -92.93c28.98,30.67 62.43,45.07 104.55,45.07 43.72,0 84.14,-17.03 113.89,-48.09 32.53,-33.92 49.75,-81.47 49.75,-137.61l0 -1.31c0,-121.9 -82.29,-185.63 -163.64,-185.63zm-25.51 93.32c46.21,0 81.05,39.73 81.05,92.31l0 1.31c0,53.51 -34.07,92.31 -81.05,92.31 -46.59,0 -80.35,-38.8 -80.35,-92.31l0 -1.31c0,-53.51 33.84,-92.31 80.35,-92.31zm430.46 -49.79c10.03,-26.8 27.97,-40.89 51.83,-40.89 28.83,0 51.46,22.07 51.39,50.11 0,8.13 -2.63,19.9 -4.94,25.32l-122 293.66c-30.67,74.42 -62.66,100.83 -122.23,100.83 -21.02,0 -37.17,-2.79 -55.71,-9.44 -12.76,-4.65 -34.23,-16.73 -34.23,-45.38 0,-28.19 22.18,-44.99 43.57,-44.99 8.49,0 13.6,1.47 17.7,2.86 8.42,2.63 13.05,3.72 19.47,3.72 16.23,0 23.03,-2.63 31.22,-18.35l2.47 -5.88 -118.68 -275.62c-2.7,-6.81 -5.57,-17.35 -5.57,-24.7 0,-29.74 22.95,-52.2 53.39,-52.2 25.12,0 42.11,13.17 51.85,40.27l71.48 192.59 69 -191.9z"/>
   <path class="fil1" d="M775.53 227.64l0 316.76c0,125.72 -102.32,227.64 -228.51,227.64l-23.11 0 -118.03 117.5c-4.62,4.6 -11.02,7.52 -18.11,7.52 -6.55,0 -12.48,-2.38 -17.03,-6.37l-2 -1.99 -0.08 -0.08 -117.03 -116.58 -23.19 0c-126.12,0 -228.44,-101.93 -228.44,-227.64l0 -316.76c0,-125.72 102.32,-227.64 228.52,-227.64l318.5 0c126.2,0 228.51,101.93 228.51,227.64z"/>
   <path class="fil2" d="M180.57 438.8c-22.5,0 -35.32,25.54 -22.27,43.98 50.75,71.83 134.68,118.66 229.5,118.66 94.83,0 178.67,-46.91 229.43,-118.66 13.05,-18.44 0.23,-43.98 -22.27,-43.98l-414.39 0z"/>
   <path class="fil2" d="M312.32 330.1l-135.75 0 0 -68.2c0,-37.65 30.4,-68.2 67.87,-68.2 37.47,0 67.87,30.55 67.87,68.2l0 68.2z"/>
   <path class="fil2" d="M599.03 330.1l-135.75 0 0 -68.2c0,-37.65 30.4,-68.2 67.87,-68.2 37.47,0 67.87,30.55 67.87,68.2l0 68.2z"/>
  </g>
 </g>
</svg>
